<svg xmlns="http://www.w3.org/2000/svg" xmlns:xlink="http://www.w3.org/1999/xlink" viewBox="0 0 100 125" version="1.1" xml:space="preserve" style="" x="0px" y="0px" fill-rule="evenodd" clip-rule="evenodd" stroke-linejoin="round" stroke-miterlimit="1.41421"><g transform="matrix(0.707107,-0.707107,0.707107,0.707107,-202.118,229.567)"><path d="M312,47.549L312,67.049C312,67.878 311.328,68.549 310.5,68.549C309.672,68.549 309,67.878 309,67.049L309,47.549L289.5,47.549C288.672,47.549 288,46.878 288,46.049C288,45.221 288.672,44.549 289.5,44.549L310.484,44.549C310.886,44.549 311.272,44.709 311.556,44.993C311.84,45.278 312,45.663 312,46.065L312,47.549Z" style="" fill="black"/></g><text x="0" y="115" fill="#000000" font-size="5px" font-weight="bold" font-family="'Helvetica Neue', Helvetica, Arial-Unicode, Arial, Sans-serif">Created by Ryo Sato</text><text x="0" y="120" fill="#000000" font-size="5px" font-weight="bold" font-family="'Helvetica Neue', Helvetica, Arial-Unicode, Arial, Sans-serif">from the Noun Project</text></svg>