<?xml version="1.0" encoding="UTF-8" standalone="no"?>
<svg width="34px" height="18px" viewBox="0 0 34 18" version="1.1" xmlns="http://www.w3.org/2000/svg" xmlns:xlink="http://www.w3.org/1999/xlink">
    <!-- Generator: Sketch 39.1 (31720) - http://www.bohemiancoding.com/sketch -->
    <title>Shape</title>
    <desc>Created with Sketch.</desc>
    <defs></defs>
    <g id="Page-1" stroke="none" stroke-width="1" fill="none" fill-rule="evenodd">
        <g id="collapse" transform="translate(-1.000000, -1.000000)" fill="#FFFFFF">
            <g id="Group" transform="translate(17.965640, 17.386445) rotate(-45.000000) translate(-17.965640, -17.386445) translate(5.965640, 4.886445)">
                <path d="M24,3.54900017 L24,23.0490002 C24,23.8780002 23.328,24.5490002 22.5,24.5490002 C21.672,24.5490002 21,23.8780002 21,23.0490002 L21,3.54900017 L1.5,3.54900017 C0.672,3.54900017 -5.32907052e-15,2.87800017 -5.32907052e-15,2.04900017 C-5.32907052e-15,1.22100017 0.672,0.54900017 1.5,0.54900017 L22.484,0.54900017 C22.886,0.54900017 23.272,0.70900017 23.556,0.99300017 C23.84,1.27800017 24,1.66300017 24,2.06500017 L24,3.54900017 L24,3.54900017 Z" id="Shape"></path>
            </g>
        </g>
    </g>
</svg>